<?xml version="1.0" encoding="utf-8"?>
<svg version="1.1"
  xmlns="http://www.w3.org/2000/svg"
  xmlns:xlink="http://www.w3.org/1999/xlink" x="0px" y="0px" viewBox="0 0 1096.9 860.7" style="enable-background:new 0 0 1096.9 860.7;" xml:space="preserve">
  <style type="text/css">
	.st0{fill:#0899F9;}
	.st1{fill:#FFFFFF;}
	.st2{fill:#E8EEFC;stroke:#3A3A3A;stroke-width:19.366;}
	.st3{fill:#979797;}
	.st4{fill:#FF5252;}
	.st5{fill:#F7AF87;}
	.st6{fill:url(#SVGID_1_);}
	.st7{fill:#404040;}
	.st8{fill:url(#SVGID_2_);}
	.st9{fill:url(#SVGID_3_);}
	.st10{fill:url(#SVGID_4_);}
	.st11{fill:url(#SVGID_5_);}
	.st12{fill:url(#SVGID_6_);}
	.st13{fill:url(#SVGID_7_);}
	.st14{fill:#DD8049;}
	.st15{fill:url(#SVGID_8_);}
	.st16{fill:#27E0C0;}
	.st17{fill:url(#SVGID_9_);}
	.st18{fill:url(#SVGID_10_);}
	.st19{fill:url(#SVGID_11_);}
	.st20{fill:#3A2528;}
	.st21{fill:url(#SVGID_12_);}
	.st22{fill:#FBB03B;}
	.st23{fill:url(#SVGID_13_);}
	.st24{fill:url(#SVGID_14_);}
	.st25{fill:url(#SVGID_15_);}
	.st26{fill:#FC682D;}
	.st27{fill:url(#SVGID_16_);}
	.st28{fill:url(#SVGID_17_);}
	.st29{fill:url(#SVGID_18_);}
	.st30{fill:#D8D8D8;}
	.st31{fill:url(#SVGID_19_);}
	.st32{fill:#F3B69A;}
	.st33{fill:#DD6FE5;}
	.st34{fill:url(#SVGID_20_);}
	.st35{fill:url(#SVGID_21_);}
	.st36{fill:url(#SVGID_22_);}
	.st37{fill:#FFAA83;}
	.st38{fill:#256EE5;}
	.st39{fill:#223A7A;}
	.st40{fill:#2C4481;}
	.st41{fill:#F79F7C;}
	.st42{fill:#093F68;}
	.st43{fill:#DFEAEF;}
	.st44{fill:#FFBC0E;}
	.st45{fill:#70CC40;}
	.st46{fill:#F56132;}
  </style>
  <g>
    <path class="st0" d="M145,195.3c19.3-15.6,44-25,69.9-25.4c31-0.5,66,9.1,81.3,49.2c30.7,80.2,57.6,11.3,141.8,78.6
		s-16.6,60,56.2,116S625,430.3,623,487.8c-1.9,57.5-90.4,102.8-117.7,103.4c-101.7,2.5-63.7-126.5-163.5-146.1
		c-99.8-19.7-112.9,17.6-173.3-7c0,0,30.3,8.1,47.4-21.1c17.2-29.2,40-36.4,40-36.4s-74.4,20.6-107.6-16.7
		c-23.6-26.5-39.2-41.2-62.8-39.5c0,0,45.3-49.8,83.5-33.3s52.4,36.5,55.9,34.5c22.3-12.8-71.5-81.9-120.9-81.7
		s-66.8-31.2-66.8-31.2s49.4,16.1,84-2.4C132.3,204.5,139.8,199.5,145,195.3z"/>
    <g>
      <path class="st1" d="M127.6,222.7c7-2.4,14.4-3.7,21.8-4.5c1.9-0.2,3.7-0.4,5.6-0.5c1.9-0.1,3.7-0.3,5.6-0.3
			c1.9,0,3.7-0.1,5.6-0.1l5.6,0.1c7.4,0.4,14.9,1.1,22.2,2.6l2.8,0.5c0.9,0.2,1.8,0.3,2.7,0.6l5.5,1.3l2.7,0.7l2.7,0.8l5.4,1.6
			c14.3,4.5,27.9,11,40.7,18.7c12.8,7.7,24.8,16.7,36.1,26.5l8.2,7.7c2.8,2.5,5.3,5.2,7.9,7.9l3.9,4c1.3,1.4,2.6,2.7,3.8,4.1
			l7.3,8.5c1.2,1.4,2.5,2.8,3.6,4.3l3.5,4.4l6.9,8.8c2.2,3,4.3,6.1,6.5,9.1l3.2,4.6c1.1,1.5,2.2,3,3.1,4.6l6,9.4
			c2,3.1,4.1,6.2,5.9,9.5l5.6,9.7c1.9,3.2,3.8,6.4,5.5,9.7l5.2,9.9l2.6,4.9l1.3,2.5l1.2,2.5c3.2,6.7,6.4,13.4,9.5,20.2
			c-3.4-6.6-6.8-13.2-10.2-19.8l-1.3-2.5l-1.4-2.4l-2.7-4.9l-5.4-9.7c-1.7-3.3-3.7-6.4-5.6-9.6l-5.8-9.5c-1.9-3.2-4-6.2-6-9.3
			l-6.2-9.3c-16.7-24.5-36-47.3-58.1-67c-11.1-9.7-22.9-18.7-35.6-26.4c-12.6-7.7-26-14.1-40-18.8c-14-4.7-28.6-7.8-43.4-8.7
			l-5.5-0.3c-1.8,0-3.7,0-5.6-0.1c-1.9-0.1-3.7,0.1-5.6,0.1c-1.9,0-3.7,0.2-5.5,0.3C142.2,219.5,134.8,220.6,127.6,222.7z"/>
    </g>
    <g>
      <path class="st1" d="M215,224.9c-1.6-1.5-3.2-3.1-4.9-4.6c-1.6-1.5-3.3-3-5-4.5c-3.3-3-6.7-5.9-10.3-8.6c-3.5-2.7-7.2-5.3-11-7.5
			c-1.9-1.1-3.9-2-6-2.8c-2.1-0.7-4.3-1.2-6.5-0.9c2.2-0.4,4.5-0.1,6.7,0.5c2.2,0.6,4.2,1.5,6.2,2.6c4,2.1,7.7,4.7,11.3,7.4
			c3.5,2.8,6.9,5.7,10.2,8.8C208.9,218.4,212.1,221.5,215,224.9z"/>
    </g>
    <g>
      <path class="st1" d="M249,242.1l-20.5,1.4c-6.8,0.5-13.7,0.9-20.5,1.4c-6.8,0.5-13.7,1-20.5,1.6c-1.7,0.1-3.4,0.3-5.1,0.5
			c-1.7,0.2-3.4,0.4-5.1,0.6c-1.7,0.2-3.4,0.4-5.1,0.7c-0.8,0.2-1.7,0.3-2.5,0.5l-2.5,0.7l2.4-0.8c0.8-0.3,1.7-0.4,2.5-0.6
			c1.7-0.4,3.4-0.7,5.1-1c1.7-0.3,3.4-0.5,5.1-0.7c1.7-0.2,3.4-0.5,5.1-0.6c6.8-0.8,13.6-1.3,20.5-1.9c6.8-0.5,13.7-0.9,20.5-1.2
			C235.3,242.4,242.2,242.1,249,242.1z"/>
    </g>
    <g>
      <path class="st1" d="M311,290c-3.2,0-6.5,0-9.7,0c-3.2,0-6.5,0-9.7,0.1c-6.5,0.1-13,0.2-19.4,0.5c-6.5,0.2-12.9,0.6-19.4,1.3
			l-2.4,0.2l-2.4,0.3c-1.6,0.2-3.2,0.4-4.8,0.6c-1.6,0.3-3.2,0.5-4.8,0.8l-4.8,1c6.2-1.8,12.7-2.8,19.1-3.6
			c6.4-0.8,12.9-1.2,19.4-1.5c6.5-0.3,13-0.4,19.5-0.3C298.1,289.4,304.6,289.6,311,290z"/>
    </g>
    <g>
      <path class="st1" d="M115.3,325.4c7.2-0.7,14.4-0.8,21.6-0.6c7.2,0.2,14.4,0.8,21.5,1.6c14.3,1.6,28.5,4.2,42.5,7.8
			c7,1.8,13.9,3.7,20.8,5.9c6.9,2.2,13.7,4.5,20.4,7.1c3.4,1.3,6.7,2.6,10,4c3.3,1.4,6.6,2.9,9.9,4.2c6.7,2.6,13.6,4.4,20.6,6.1
			c14,3.3,28.2,5.5,42.4,7.2c14.3,1.7,28.6,2.8,43,3.2c14.4,0.4,28.7,0.3,43.1-1c7.2-0.6,14.3-1.5,21.3-2.9c7-1.4,14-3.2,20.6-6.2
			c-6.5,3-13.5,5-20.5,6.5c-7,1.5-14.2,2.5-21.4,3.2c-14.3,1.4-28.8,1.7-43.1,1.4c-14.4-0.3-28.8-1.3-43.1-2.9
			c-14.3-1.6-28.6-3.8-42.6-7.1c-7-1.7-14-3.5-20.8-6.1c-3.4-1.3-6.7-2.8-10-4.1c-3.3-1.3-6.7-2.7-10-3.9
			c-6.7-2.5-13.5-4.9-20.3-7.1c-6.8-2.2-13.7-4.2-20.7-6c-13.9-3.5-28-6.4-42.2-8.2c-7.1-0.9-14.3-1.6-21.4-2
			C129.7,325,122.5,324.9,115.3,325.4z"/>
    </g>
    <g>
      <path class="st1" d="M167.3,321.1c-2.2-1.6-4.3-3.2-6.5-4.8c-2.2-1.5-4.4-3-6.8-4.4c-2.3-1.4-4.7-2.7-7.1-3.7
			c-1.2-0.5-2.5-1-3.8-1.3c-1.3-0.3-2.7-0.4-4-0.1c1.3-0.4,2.7-0.3,4-0.1c1.3,0.2,2.6,0.6,3.9,1.1c2.5,1,4.9,2.3,7.2,3.6
			c2.3,1.4,4.5,2.9,6.7,4.5C163.2,317.6,165.3,319.3,167.3,321.1z"/>
    </g>
    <g>
      <path class="st1" d="M269.1,404.4c-2.7-0.2-5.5-0.4-8.2-0.6c-2.7-0.1-5.5-0.2-8.2-0.2c-2.7,0-5.5,0.1-8.2,0.5
			c-1.4,0.2-2.7,0.5-4,0.9c-1.3,0.4-2.6,1-3.5,2c0.9-1.1,2.2-1.7,3.5-2.2c1.3-0.5,2.7-0.8,4-1c2.7-0.5,5.5-0.6,8.3-0.7
			c2.8,0,5.5,0.1,8.3,0.3C263.7,403.6,266.4,404,269.1,404.4z"/>
    </g>
    <g>
      <path class="st1" d="M202.5,334.9c-0.2-1.5-0.5-3-0.8-4.4c-0.3-1.5-0.7-2.9-1.1-4.4c-0.8-2.9-1.8-5.7-3-8.5
			c-1.2-2.8-2.7-5.4-4.3-7.9l-1.3-1.8c-0.4-0.6-1-1.2-1.4-1.7l-0.7-0.9c-0.2-0.3-0.5-0.5-0.8-0.8l-1.6-1.6c2.3,2,4.4,4.2,6.2,6.7
			c1.7,2.5,3.2,5.1,4.5,7.9c1.2,2.8,2.2,5.7,2.9,8.6C201.7,328.9,202.3,331.8,202.5,334.9z"/>
    </g>
    <g>
      <path class="st1" d="M183.8,337.4l-12,2.1c-4,0.7-8,1.4-12,2.1c-4,0.7-8,1.5-12,2.3c-2,0.4-4,0.8-6,1.3c-1,0.2-2,0.5-3,0.8
			c-0.5,0.2-1,0.3-1.5,0.4l-1.4,0.6c3.7-1.7,7.8-2.6,11.7-3.5c4-0.9,8-1.7,12-2.4c4-0.7,8-1.4,12.1-2
			C175.7,338.5,179.7,337.9,183.8,337.4z"/>
    </g>
    <g>
      <path class="st1" d="M317.5,389.7l-12.1-1.9c-4-0.6-8.1-1.3-12.1-1.9c-4-0.6-8.1-1.2-12.1-1.8c-2-0.3-4.1-0.5-6.1-0.7
			c-1-0.1-2-0.2-3.1-0.2c-0.5,0-1-0.1-1.5-0.1l-1.5,0.1c4.1-0.4,8.2,0.1,12.2,0.5c4.1,0.4,8.1,1,12.2,1.6c4,0.6,8.1,1.3,12.1,2
			C309.4,388.1,313.5,388.8,317.5,389.7z"/>
    </g>
    <g>
      <g>
        <path class="st1" d="M302.8,409.4c-1.6,2.1-3.2,4.2-5,6.1c-1.8,2-3.6,3.9-5.5,5.7c-2,1.8-4,3.5-6.3,4.9c-1.1,0.7-2.3,1.3-3.5,1.8
				c-1.2,0.5-2.6,0.8-3.9,0.6c1.3,0,2.6-0.4,3.8-0.9c1.2-0.5,2.3-1.2,3.4-1.9c2.2-1.5,4.2-3.2,6.1-5c1.9-1.8,3.8-3.6,5.6-5.6
				C299.3,413.4,301.1,411.4,302.8,409.4z"/>
      </g>
      <g>
        <path class="st1" d="M347.8,387.8c-2.1,3.2-4.2,6.3-6.4,9.4c-2.2,3.1-4.4,6.2-6.7,9.2c-2.3,3-4.6,6.1-7,9
				c-2.5,2.9-4.9,5.9-7.9,8.2c0.7-0.6,1.4-1.2,2.1-1.9c0.7-0.7,1.3-1.4,1.9-2.1c0.6-0.7,1.2-1.4,1.8-2.2c0.6-0.7,1.2-1.5,1.8-2.2
				c2.4-3,4.7-6,6.9-9.1c2.3-3,4.5-6.1,6.8-9.2L347.8,387.8z"/>
      </g>
    </g>
    <g>
      <path class="st1" d="M229.4,353.6c-1.9,0.2-3.8,0.4-5.8,0.6c-1.9,0.2-3.8,0.4-5.8,0.7c-3.8,0.5-7.7,0.9-11.5,1.6
			c-3.8,0.6-7.6,1.2-11.4,2c-0.9,0.2-1.9,0.4-2.8,0.6c-0.9,0.2-1.9,0.4-2.8,0.7c-0.9,0.3-1.9,0.5-2.8,0.8l-2.8,0.9
			c3.6-1.5,7.3-2.5,11.1-3.4c3.8-0.9,7.6-1.5,11.4-2.1c3.8-0.6,7.7-1.1,11.5-1.4C221.7,354,225.6,353.7,229.4,353.6z"/>
    </g>
    <g>
      <path class="st1" d="M218.2,433.4c6.3-2.2,12.5-4.6,18.7-7c6.2-2.4,12.4-4.9,18.6-7.4c12.3-5.1,24.6-10.4,36.6-16.1
			c12.1-5.7,24-11.7,35.5-18.5c5.7-3.4,11.4-6.9,16.8-10.8c5.4-3.8,10.7-8,15.4-12.7c-9.2,9.7-20.5,17.2-31.9,24.1
			c-11.5,6.9-23.4,13-35.4,18.7c-12.1,5.7-24.4,11-36.8,15.9c-6.2,2.5-12.4,4.9-18.7,7.2C230.8,429,224.5,431.3,218.2,433.4z"/>
    </g>
  </g>
  <g>
    <path class="st2" d="M1029.5,593.5h-684c-7.7,0-13.9-6.2-13.9-13.9V168.1c0-7.7,6.2-13.9,13.9-13.9h684c7.7,0,13.9,6.2,13.9,13.9
		v411.5C1043.3,587.3,1037.1,593.5,1029.5,593.5z"/>
    <path class="st3" d="M612.9,344.1h151.8c5.3,0,9.6,4.3,9.6,9.6l0,0c0,5.3-4.3,9.6-9.6,9.6H612.9c-5.3,0-9.6-4.3-9.6-9.6l0,0
		C603.3,348.4,607.6,344.1,612.9,344.1z"/>
    <path class="st3" d="M612.9,296.6h28.5c5.3,0,9.6,4.3,9.6,9.6v1.6c0,5.3-4.3,9.6-9.6,9.6h-28.5c-5.3,0-9.6-4.3-9.6-9.6v-1.6
		C603.3,300.9,607.6,296.6,612.9,296.6z"/>
    <path class="st3" d="M612.9,249.8h109.4c5.3,0,9.6,4.3,9.6,9.6v1.7c0,5.3-4.3,9.6-9.6,9.6H612.9c-5.3,0-9.6-4.3-9.6-9.6v-1.7
		C603.3,254.1,607.6,249.8,612.9,249.8z"/>
    <path class="st3" d="M612.9,203.5h181.9c5.3,0,9.6,4.3,9.6,9.6v0.8c0,5.3-4.3,9.6-9.6,9.6H612.9c-5.3,0-9.6-4.3-9.6-9.6v-0.8
		C603.3,207.8,607.6,203.5,612.9,203.5z"/>
    <path class="st4" d="M432.3,314.3l-29.2-31.8l-12.4,16.8l-9.5-7l21-28.3l28,30.2l43.5-79.1l33.4,53.7l39.1-69.9l10.5,6L507.7,292
		l-33.4-53.4L432.3,314.3z M432.3,314.3"/>
    <g>
      <rect x="852" y="184.9" class="st1" width="150.5" height="98"/>
      <g>
        <path class="st0" d="M921.6,251.3c0,0-12.9,0.3-19.5,11.1c0,0-4.5,17.5-4,20.8l0.7-0.1c6.6-1.1,13.3-1.5,20-1.1
				c8.8,0.5,4,0.7,12.4,0.4c20-0.9,31.4,0.9,31.4,0.9s-2.7-29.1-16.4-29.6C933.9,253.1,921.6,251.3,921.6,251.3z"/>
        <path class="st5" d="M922.5,240.3c0,0-0.2,9.1-1,11c-0.8,1.9,6.4,7.6,13.7,2.4l0.5-2.3c0,0-1.3-6.4-0.5-11.9
				C936.1,234,922.5,240.3,922.5,240.3z"/>

        <linearGradient id="SVGID_1_" gradientUnits="userSpaceOnUse" x1="933.4062" y1="511.1364" x2="936.6109" y2="559.4438" gradientTransform="matrix(1.0109 0 0 -1.0109 -16.0038 778.0054)">
          <stop offset="0" style="stop-color:#000000;stop-opacity:0"/>
          <stop offset="0.99" style="stop-color:#000000"/>
        </linearGradient>
        <path class="st6" d="M922.4,241.5c0,0,1.3,6.1,6.7,6.6s5.9-1.4,5.9-1.4l0.1-7.9L922.4,241.5z"/>
        <path class="st5" d="M914.3,221.8c-0.6-0.5-1.4-0.6-2.2-0.4c-0.3,0.1-0.5,0.3-0.7,0.5c-1.1,1.2-1.1,3.1-0.7,4.7
				c0.2,0.9,0.5,1.8,0.8,2.7c0.1,0.4,0.3,0.8,0.6,1.1c0.8,1,2.2,1.1,3.5,1c0.8,0,1.5-0.4,1.9-1c0.1-0.3,0.2-0.5,0.2-0.8
				C917.9,226.3,917.2,223.5,914.3,221.8z"/>
        <path class="st5" d="M945.3,223.1c0.9-0.6,2.1-1.1,3.2-0.7c0.8,0.4,1.4,1.2,1.4,2.2c0.1,0.9-0.1,1.8-0.5,2.7
				c-0.4,1.1-0.9,2.1-1.6,2.9c-0.7,0.9-1.8,1.4-2.9,1.5c-1.2,0.1-2.3-0.5-2.8-1.5c-0.3-0.7-0.4-1.4-0.4-2.1c-0.1-0.6,0-1.1,0.2-1.6
				C942.3,225.3,944.3,223.7,945.3,223.1z"/>
        <path class="st5" d="M944.3,226.2c-1.2,9.8-6.6,17.9-14.8,17.9s-14.8-8-14.8-17.9s5.2-21,13.4-21
				C936.3,205.2,946.7,206.1,944.3,226.2z"/>
        <path class="st7" d="M914.8,221.7l0.1,2.2c0,0.3,0.1,0.7,0.4,0.8c0.3,0.1,0.7-0.5,0.7-1c0-1.8-0.6-3.8,0.6-5.2
				c0.3-0.3,0.5-0.6,0.7-0.9c0.5-0.9-0.2-2.1,0.2-3.1c0.2-0.5,0.8-0.9,1.2-1.3c0.5-0.7,0.9-1.5,1.1-2.3c0.1-0.3,0.3-0.5,0.5-0.7
				c0.2-0.1,0.5-0.2,0.7-0.2c0.9-0.2,1.5-1.2,2.2-1.7c0.7-0.4,1.5-0.5,2.3-0.4c3.1,0.1,6.4,1.2,9.3,0c1.2,1.7,3,2.8,5,3.2
				c0.2,0,0.3,0.1,0.5,0.2c0.1,0.2,0.2,0.4,0.3,0.6c0.3,0.7,0.7,1.3,1.2,1.8c1.8,2.2,1.8,5.4,1.6,8.2l-0.2,4.6l1.6-2.7
				c0.2-0.3,0.4-0.6,0.6-0.8c0.3-0.2,0.7-0.4,0.9-0.7c0.1-0.2,0.1-0.4,0.1-0.6l0.4-3.9c0.1-0.7,0.1-1.4-0.1-2.1
				c-0.1-0.4-0.4-0.8-0.5-1.3c-0.2-0.8-0.2-1.6-0.1-2.4c0.1-0.8-0.2-1.6-0.7-2.2c0.5-1.8,1-3.6,0.6-5.4c-0.4-1.8-2.1-3.4-3.9-3.1
				c-0.3,0.1-0.6,0.1-0.8,0.1c-0.2-0.1-0.5-0.2-0.6-0.4c-1.3-1-2.8-1.6-4.4-1.6c-1.9-0.1-3.8-0.1-5.7,0c-4.2,0.4-8.7-0.5-12.7,1
				c-1,0.4-1.8,0.9-2.6,1.6c-0.8,0.8-1.5,1.7-2,2.7c-0.3,0.4-0.5,0.9-0.7,1.4c-0.1,0.6-0.1,1.1,0,1.7c0,1.9-1,3.7-0.6,5.6
				c0.1,0.7,0.4,1.3,0.5,2c0.1,0.6,0.1,1.2,0,1.9c-0.1,1.6,0.2,3.1,0.8,4.6c0.1,0.2,0.3,0.5,0.5,0.6
				C914.3,222,914.5,221.4,914.8,221.7z"/>
        <path class="st7" d="M916.9,238.1c0.2,0.9,0.5,1.8,0.9,2.6c1.1,1.8,2.7,3.2,4.7,3.8c2,0.7,4,1,6.1,1c2.8,0.1,5.6-0.1,8.4-0.5
				c1-0.1,0.9-0.4,1.7-1c1.3-1,2.8-2.7,3-4.3c0.8-4.7,2.1-11.2,1.9-16c-1.3,2.4-1.3,7.4-3.1,9.3c-1,1-2.5,1.4-3.9,1.6
				c-4.6,0.8-9.3,0.7-13.8-0.2c-1.4-0.2-2.7-0.7-3.7-1.6c-1.6-1.6-1.5-4.2-1.9-6.4c-0.1-1-0.5-2.5-1.6-2.8c-0.3,2,0.1,4.1,0.2,6.1
				C915.9,232.7,916.2,235.5,916.9,238.1z"/>

        <linearGradient id="SVGID_2_" gradientUnits="userSpaceOnUse" x1="916.7447" y1="544.9114" x2="924.1629" y2="545.987" gradientTransform="matrix(1.0109 0 0 -1.0109 -16.0038 778.0054)">
          <stop offset="0" style="stop-color:#000000;stop-opacity:0"/>
          <stop offset="0.99" style="stop-color:#000000"/>
        </linearGradient>
        <path class="st8" d="M913.3,224.9c0-0.2,0-0.4-0.1-0.7c-0.1-0.2-0.3-0.4-0.5-0.4c-0.2,0-0.4,0.2-0.5,0.4
				c-0.4,0.9-0.4,1.9-0.1,2.8c0.2,0.9,0.8,1.8,1.6,2.3c0.4,0.3,0.9,0.3,1.4,0.1c0.7-0.5,0.5-2-0.2-2.5c-0.4-0.3-0.7-0.2-1.1-0.7
				C913.5,225.9,913.3,225.4,913.3,224.9z"/>

        <linearGradient id="SVGID_3_" gradientUnits="userSpaceOnUse" x1="-1038.3595" y1="544.9114" x2="-1030.9413" y2="545.987" gradientTransform="matrix(-1.0109 0 0 -1.0109 -100.5173 778.0054)">
          <stop offset="0" style="stop-color:#000000;stop-opacity:0"/>
          <stop offset="0.99" style="stop-color:#000000"/>
        </linearGradient>
        <path class="st9" d="M946.6,224.9c0-0.2,0-0.4,0.1-0.7c0.1-0.2,0.3-0.4,0.5-0.4c0.2,0,0.4,0.2,0.5,0.4c0.4,0.9,0.4,1.9,0.1,2.8
				c-0.2,0.9-0.8,1.8-1.6,2.3c-0.4,0.3-0.9,0.3-1.4,0.1c-0.7-0.5-0.4-2,0.2-2.5c0.4-0.3,0.7-0.2,1.1-0.7
				C946.4,225.9,946.6,225.4,946.6,224.9z"/>
        <path class="st0" d="M938.3,247.6c-0.8-0.3-1.6-0.5-2.4-0.4c-5.1,0.1-10.3,1.2-15.1-0.5c-0.8,0.8-1.4,1.8-1.7,2.9
				c-0.5,2.3,1.5,4.4,3.6,5.5c3.5,1.8,7.7,1.7,11.7,1.5c1.6-0.1,3.2-0.2,4.4-1.3C940.5,253.6,940.6,248.9,938.3,247.6z"/>

        <linearGradient id="SVGID_4_" gradientUnits="userSpaceOnUse" x1="922.1392" y1="489.0502" x2="896.3386" y2="578.0466" gradientTransform="matrix(1.0109 0 0 -1.0109 -16.0038 778.0054)">
          <stop offset="0" style="stop-color:#000000;stop-opacity:0"/>
          <stop offset="0.99" style="stop-color:#000000"/>
        </linearGradient>
        <path class="st10" d="M919,251.2c0,0-1.6,3.9,6.5,4.1c0,0-8.2,0.2-10.4,2c-2.3,1.8-8,4.6-8.3,8.2s-2.3,13.2-2.3,13.2l-6.5,2.5
				l4-18.7C905.9,256.5,912,252.5,919,251.2z"/>
      </g>
      <rect x="898.2" y="281.2" class="st0" width="63.8" height="2.5"/>
    </g>
    <g>
      <rect x="852" y="442.6" class="st1" width="150.5" height="98"/>
      <path class="st0" d="M884.1,534.1c6.1-9.8,17.1-15.6,28.6-15.2c4,0,8,0.3,11.9,0.3c11.4,0,28.6-4,38.5,1.9
			c4.1,2.4,7.5,13.3,9.5,17.6c0.5,0.8,0.6,1.8,0.2,2.7c-0.6,0.8-1.5,0.7-2.3,0.7c-20.3-0.2-40.5,0-60.8,0h-28.5
			C881.5,539.2,882.5,536.4,884.1,534.1z"/>

      <linearGradient id="SVGID_5_" gradientUnits="userSpaceOnUse" x1="558.6562" y1="916.4249" x2="576.9821" y2="916.4249" gradientTransform="matrix(1.0207 0.2871 0.2871 -1.0207 88.0346 1287.4657)">
        <stop offset="0" style="stop-color:#E3C5D5"/>
        <stop offset="0.42" style="stop-color:#E8D3CF"/>
        <stop offset="1" style="stop-color:#EFE8CB"/>
      </linearGradient>
      <path class="st11" d="M923.9,523.8c0.9,0.7,1.9,1.2,3,1.6c2.3,0.9,4.7,1.2,7.1,0.9c2.4-0.4,4.5-2.1,5.3-4.4c0.2-1.2,0.2-2.5,0-3.7
			l-0.5-4.4c-0.1-2.2-0.6-4.3-1.6-6.3c-2-3.1-5.9-4.4-9.4-3c-2.2,1.1-3.9,2.9-4.9,5.1C920.8,514.6,919.1,519.8,923.9,523.8z"/>

      <linearGradient id="SVGID_6_" gradientUnits="userSpaceOnUse" x1="633.755" y1="684.0468" x2="641.7323" y2="727.3073" gradientTransform="matrix(1.0632 0 0 -1.0632 253.774 1247.274)">
        <stop offset="0" style="stop-color:#010101;stop-opacity:0"/>
        <stop offset="0.95" style="stop-color:#010101"/>
      </linearGradient>
      <path class="st12" d="M937.4,507.6c0,0-4.6,13.3-11.3,13.3s-4.9-6.5-4.9-6.5L937.4,507.6z"/>

      <linearGradient id="SVGID_7_" gradientUnits="userSpaceOnUse" x1="618.6352" y1="708.3098" x2="649.1293" y2="708.3098" gradientTransform="matrix(1.0632 0 0 -1.0632 253.774 1247.274)">
        <stop offset="0" style="stop-color:#E3C5D5"/>
        <stop offset="0.42" style="stop-color:#E8D3CF"/>
        <stop offset="1" style="stop-color:#EFE8CB"/>
      </linearGradient>
      <path class="st13" d="M911.9,502.2c0.6,2.3,1.7,4.4,2.4,6.7c0.3,1.1,0.7,2.1,1.2,3c0.9,1.3,2.3,2.3,3.9,2.8
			c3.4,1.2,7.1,1.1,10.4-0.3c4.4-2.2,7.8-6.1,9.4-10.8c1.7-4.6,4.6-9.1,4.7-14.1c0-2.1-2.5-4.6-3.3-6.6c-0.9-2.1-2.3-4-4-5.5
			c-1.4-1.5-3-2.8-4.8-3.7c-4.6-1.8-9.9-1.2-14,1.7c-1.4,0.8-2.6,1.8-3.6,3c-2.4,3.3-2,7.2-2,11
			C912.2,493.9,910.9,497.9,911.9,502.2z"/>
      <path class="st14" d="M906.3,479.9c-1.2-2.4-1.9-5-2.2-7.6c-0.2-0.6-0.2-1.3,0-1.9c0.4-0.9,1.6-1.2,2.2-1.9c1.4-1.5,0.3-4,0.4-6.1
			c0.3-2.4,1.9-4.5,4.2-5.4c2.3-0.8,4.7-1.2,7.1-1.2c3.2-0.6,6.5,0.2,9.1,2.2c1.2,1.2,1.9,3,3,4c2.8,2.3,7,0.8,10.5,1.6
			c3.1,0.7,5.5,3.2,6.1,6.4c0.5,3-0.7,6.5,1,9.1c0.7,0.7,1.3,1.5,1.7,2.3c0.3,1,0.2,2.1-0.3,3c-1.3,4-3.2,7.8-5.4,11.3
			c-0.4,0.7-1,1.3-1.6,1.7c-0.7,0.4-2,4.7-2.4,4c-0.4-2.5-0.2-5,0.7-7.4c0.8-0.7,1.4-1.6,1.9-2.6c0.2-1.7-0.9-3.2-2.6-3.4
			c0,0,0,0,0,0c-0.9-0.1-1.8,0.2-2.5,0.8c0.8-4.9-1.8-10.6-6.7-11.6c-2.9-0.3-5.9,0.3-8.4,1.7C916.6,481.7,910.6,487.6,906.3,479.9z
			"/>

      <linearGradient id="SVGID_8_" gradientUnits="userSpaceOnUse" x1="645.8997" y1="710.3368" x2="638.1224" y2="711.2517" gradientTransform="matrix(1.0632 0 0 -1.0632 253.774 1247.274)">
        <stop offset="0" style="stop-color:#010101;stop-opacity:0"/>
        <stop offset="0.95" style="stop-color:#010101"/>
      </linearGradient>
      <path class="st15" d="M939.1,489.9c0.1-0.2,0.2-0.4,0.5-0.5c0.3,0,0.5,0.1,0.7,0.2c0.4,0.2,0.7,0.5,0.9,0.9c0.1,0.3,0.1,0.6,0,0.9
			c-0.2,0.6-0.4,1.3-0.7,1.8c-0.3,0.6-0.9,1-1.6,1.1c-0.3,0-0.8-0.7-0.8-1c0-0.3,0.3-0.4,0.4-0.7
			C938.8,491.9,938.5,490.8,939.1,489.9z"/>
      <rect x="852" y="442.6" class="st1" width="150.5" height="98"/>
      <path class="st16" d="M884.1,534.1c6.1-9.8,17.1-15.6,28.6-15.2c4,0,8,0.3,11.9,0.3c11.4,0,28.6-4,38.5,1.9
			c4.1,2.4,7.5,13.3,9.5,17.6c0.5,0.8,0.6,1.8,0.2,2.7c-0.6,0.8-1.5,0.7-2.3,0.7c-20.3-0.2-40.5,0-60.8,0h-28.5
			C881.5,539.2,882.5,536.4,884.1,534.1z"/>

      <linearGradient id="SVGID_9_" gradientUnits="userSpaceOnUse" x1="558.6562" y1="916.4249" x2="576.9821" y2="916.4249" gradientTransform="matrix(1.0207 0.2871 0.2871 -1.0207 88.0346 1287.4657)">
        <stop offset="0" style="stop-color:#E3C5D5"/>
        <stop offset="0.42" style="stop-color:#E8D3CF"/>
        <stop offset="1" style="stop-color:#EFE8CB"/>
      </linearGradient>
      <path class="st17" d="M923.9,523.8c0.9,0.7,1.9,1.2,3,1.6c2.3,0.9,4.7,1.2,7.1,0.9c2.4-0.4,4.5-2.1,5.3-4.4c0.2-1.2,0.2-2.5,0-3.7
			l-0.5-4.4c-0.1-2.2-0.6-4.3-1.6-6.3c-2-3.1-5.9-4.4-9.4-3c-2.2,1.1-3.9,2.9-4.9,5.1C920.8,514.6,919.1,519.8,923.9,523.8z"/>

      <linearGradient id="SVGID_10_" gradientUnits="userSpaceOnUse" x1="633.755" y1="684.0468" x2="641.7323" y2="727.3073" gradientTransform="matrix(1.0632 0 0 -1.0632 253.774 1247.274)">
        <stop offset="0" style="stop-color:#010101;stop-opacity:0"/>
        <stop offset="0.95" style="stop-color:#010101"/>
      </linearGradient>
      <path class="st18" d="M937.4,507.6c0,0-4.6,13.3-11.3,13.3s-4.9-6.5-4.9-6.5L937.4,507.6z"/>

      <linearGradient id="SVGID_11_" gradientUnits="userSpaceOnUse" x1="618.6352" y1="708.3098" x2="649.1293" y2="708.3098" gradientTransform="matrix(1.0632 0 0 -1.0632 253.774 1247.274)">
        <stop offset="0" style="stop-color:#E3C5D5"/>
        <stop offset="0.42" style="stop-color:#E8D3CF"/>
        <stop offset="1" style="stop-color:#EFE8CB"/>
      </linearGradient>
      <path class="st19" d="M911.9,502.2c0.6,2.3,1.7,4.4,2.4,6.7c0.3,1.1,0.7,2.1,1.2,3c0.9,1.3,2.3,2.3,3.9,2.8
			c3.4,1.2,7.1,1.1,10.4-0.3c4.4-2.2,7.8-6.1,9.4-10.8c1.7-4.6,4.6-9.1,4.7-14.1c0-2.1-2.5-4.6-3.3-6.6c-0.9-2.1-2.3-4-4-5.5
			c-1.4-1.5-3-2.8-4.8-3.7c-4.6-1.8-9.9-1.2-14,1.7c-1.4,0.8-2.6,1.8-3.6,3c-2.4,3.3-2,7.2-2,11
			C912.2,493.9,910.9,497.9,911.9,502.2z"/>
      <path class="st20" d="M906.3,479.9c-1.2-2.4-1.9-5-2.2-7.6c-0.2-0.6-0.2-1.3,0-1.9c0.4-0.9,1.6-1.2,2.2-1.9c1.4-1.5,0.3-4,0.4-6.1
			c0.3-2.4,1.9-4.5,4.2-5.4c2.3-0.8,4.7-1.2,7.1-1.2c3.2-0.6,6.5,0.2,9.1,2.2c1.2,1.2,1.9,3,3,4c2.8,2.3,7,0.8,10.5,1.6
			c3.1,0.7,5.5,3.2,6.1,6.4c0.5,3-0.7,6.5,1,9.1c0.7,0.7,1.3,1.5,1.7,2.3c0.3,1,0.2,2.1-0.3,3c-1.3,4-3.2,7.8-5.4,11.3
			c-0.4,0.7-1,1.3-1.6,1.7c-0.7,0.4-2,4.7-2.4,4c-0.4-2.5-0.2-5,0.7-7.4c0.8-0.7,1.4-1.6,1.9-2.6c0.2-1.7-0.9-3.2-2.6-3.4
			c0,0,0,0,0,0c-0.9-0.1-1.8,0.2-2.5,0.8c0.8-4.9-1.8-10.6-6.7-11.6c-2.9-0.3-5.9,0.3-8.4,1.7C916.6,481.7,910.6,487.6,906.3,479.9z
			"/>

      <linearGradient id="SVGID_12_" gradientUnits="userSpaceOnUse" x1="645.8997" y1="710.3368" x2="638.1224" y2="711.2517" gradientTransform="matrix(1.0632 0 0 -1.0632 253.774 1247.274)">
        <stop offset="0" style="stop-color:#010101;stop-opacity:0"/>
        <stop offset="0.95" style="stop-color:#010101"/>
      </linearGradient>
      <path class="st21" d="M939.1,489.9c0.1-0.2,0.2-0.4,0.5-0.5c0.3,0,0.5,0.1,0.7,0.2c0.4,0.2,0.7,0.5,0.9,0.9c0.1,0.3,0.1,0.6,0,0.9
			c-0.2,0.6-0.4,1.3-0.7,1.8c-0.3,0.6-0.9,1-1.6,1.1c-0.3,0-0.8-0.7-0.8-1c0-0.3,0.3-0.4,0.4-0.7
			C938.8,491.9,938.5,490.8,939.1,489.9z"/>
    </g>
    <g>
      <rect x="849.1" y="311" class="st1" width="157.2" height="102.3"/>
      <path class="st22" d="M911.4,322.4c5.9-1.7,12-2.1,18-0.9c3.4,0.3,6.7,1.2,9.8,2.8c9.7,5.7,7.4,14,8.3,23c0.1,3,1.9,5.7,4.5,7.1
			c1.8,0.8,4.1,0.7,5.6,2c1.6,1.7,2.2,4.1,1.5,6.4c-0.5,2.2-1.6,4.2-2.1,6.4c-0.2,0.9-0.1,1.8,0.3,2.6c0.7,1,2,1.1,3.2,1.6
			c2.6,1.4,4.3,4,4.5,7c0.4,2.9,0,5.8,0.2,8.7c0.3,1.8,0.5,3.7,0.5,5.5c-0.4,5.6-6,9.7-11.6,10.5c-5.7,0.2-11.3-0.8-16.5-3
			c-5.2-2.2-10.9-3.1-16.6-2.7c-6,1-12.4,4.9-17.8,2c-3.1-2-4.9-5.4-4.8-9.1c0.1-3.6,0.9-7.1,2.2-10.4c0.5-1,0.6-2.2,0.3-3.3
			c-0.5-0.8-1.2-1.5-2.1-2c-7.8-6.1-5-29.1-1.7-37C900.2,332.6,903.7,325.2,911.4,322.4z"/>
      <path class="st0" d="M944.4,383.7c5.1,1,10.9,0.5,15.1,3.6c2.5,2,4.2,4.8,4.8,7.9c0.5,3.1,0.6,6.3,0.3,9.5l-0.3,9.2
			c0,0.3-0.1,0.7-0.3,0.9c-0.3,0.2-0.7,0.3-1.1,0.3l-79.4,0.3c-1.4-5.1-0.7-10.5,2.1-15c2-3.9,4.7-7.4,8-10.4c4.8-3.7,16.1-4,21.4-7
			c1.4-0.8,0-1.9,1.7-2.3c1.7-0.4,0.9-2.2,2.4-2.3c4.7-0.4,9.3-0.2,13.9,0.6C937.1,380,940.2,382.8,944.4,383.7z"/>

      <linearGradient id="SVGID_13_" gradientUnits="userSpaceOnUse" x1="619.6534" y1="814.0727" x2="639.3361" y2="814.0727" gradientTransform="matrix(1.0632 0 0 -1.0632 253.774 1247.274)">
        <stop offset="0" style="stop-color:#E3C5D5"/>
        <stop offset="0.42" style="stop-color:#E8D3CF"/>
        <stop offset="1" style="stop-color:#EFE8CB"/>
      </linearGradient>
      <path class="st23" d="M913.4,386.3c-0.4,1.3-0.7,2.6-0.8,3.9c0,3.1,1.6,5.9,4.2,7.5c2.7,1.5,5.9,1.7,8.7,0.4
			c3-1.5,5.3-4.1,6.4-7.3c1.1-3.2,1.7-6.5,1.6-9.8c0.1-4.4-0.2-8.9-0.8-13.3c0.3-1.5-0.7-2.9-2.1-3.2c0,0-0.1,0-0.1,0h-0.7
			c-5.4-0.8-10.6,2.2-12.7,7.2c-0.5,1.6-0.9,3.3-1.1,5C915.3,380,914.4,383.2,913.4,386.3z"/>

      <linearGradient id="SVGID_14_" gradientUnits="userSpaceOnUse" x1="626.2551" y1="809.9124" x2="655.6447" y2="850.353" gradientTransform="matrix(1.0632 0 0 -1.0632 253.774 1247.274)">
        <stop offset="0" style="stop-color:#010101;stop-opacity:0"/>
        <stop offset="0.95" style="stop-color:#010101"/>
      </linearGradient>
      <path class="st24" d="M915.3,379.6c0,0-0.5,4.1,1.4,5.6s9.1,5,12.7,0c2.2-3.2,3.6-6.9,4.2-10.8L915.3,379.6z"/>

      <linearGradient id="SVGID_15_" gradientUnits="userSpaceOnUse" x1="546.6298" y1="968.5271" x2="580.9476" y2="968.5271" gradientTransform="matrix(1.0526 0.1701 0.1701 -1.0526 164.2559 1281.2946)">
        <stop offset="0" style="stop-color:#E3C5D5"/>
        <stop offset="0.42" style="stop-color:#E8D3CF"/>
        <stop offset="1" style="stop-color:#EFE8CB"/>
      </linearGradient>
      <path class="st25" d="M905.3,366.2c0.9,3,6.5,13.5,14.3,15.4c16.7,4.1,21.7-25.2,20.9-31.3c-1.1-5.1-3.8-9.8-7.7-13.4
			c-4.3-3.4-10.2-4-15.1-1.7C904.5,340.7,901.2,353.5,905.3,366.2z"/>
      <path class="st22" d="M916.8,346c3.5,1,7,1.8,10.6,2.2c0.2,2.1,0.5,4.2,0.9,6.4c0.1,0.9,0.4,1.7,0.8,2.5c0.7,1.1,1.9,1.8,3.2,2
			c1.3,0.2,2.7,0.2,4,0c0.6-0.1,1.2,0,1.7,0.3c0.3,0.2,0.5,0.6,0.6,0.9l2.3,5.5c0.2,0.1,0.5,0,0.6-0.2c0,0,0-0.1,0.1-0.2
			c0.1-0.3,0.1-0.6,0-0.9c-0.4-2.2,1.1-4.2,2-6.4c2.3-5.2,0.8-11.2-1.2-16.5c-0.8-2.5-2-4.8-3.5-6.9c-3.9-4.3-9.3-6.9-15.1-7.2
			c-2.8-0.4-5.7-0.2-8.4,0.7c-3.9,1.7-6.6,5.5-6.9,9.7C908.5,342.5,913.3,345,916.8,346z"/>
      <rect x="849.1" y="311" class="st1" width="157.2" height="102.3"/>
      <path class="st26" d="M911.4,322.4c5.9-1.7,12-2.1,18-0.9c3.4,0.3,6.7,1.2,9.8,2.8c9.7,5.7,7.4,14,8.3,23c0.1,3,1.9,5.7,4.5,7.1
			c1.8,0.8,4.1,0.7,5.6,2c1.6,1.7,2.2,4.1,1.5,6.4c-0.5,2.2-1.6,4.2-2.1,6.4c-0.2,0.9-0.1,1.8,0.3,2.6c0.7,1,2,1.1,3.2,1.6
			c2.6,1.4,4.3,4,4.5,7c0.4,2.9,0,5.8,0.2,8.7c0.3,1.8,0.5,3.7,0.5,5.5c-0.4,5.6-6,9.7-11.6,10.5c-5.7,0.2-11.3-0.8-16.5-3
			c-5.2-2.2-10.9-3.1-16.6-2.7c-6,1-12.4,4.9-17.8,2c-3.1-2-4.9-5.4-4.8-9.1c0.1-3.6,0.9-7.1,2.2-10.4c0.5-1,0.6-2.2,0.3-3.3
			c-0.5-0.8-1.2-1.5-2.1-2c-7.8-6.1-5-29.1-1.7-37C900.2,332.6,903.7,325.2,911.4,322.4z"/>
      <path class="st0" d="M944.4,383.7c5.1,1,10.9,0.5,15.1,3.6c2.5,2,4.2,4.8,4.8,7.9c0.5,3.1,0.6,6.3,0.3,9.5l-0.3,9.2
			c0,0.3-0.1,0.7-0.3,0.9c-0.3,0.2-0.7,0.3-1.1,0.3l-79.4,0.3c-1.4-5.1-0.7-10.5,2.1-15c2-3.9,4.7-7.4,8-10.4c4.8-3.7,16.1-4,21.4-7
			c1.4-0.8,0-1.9,1.7-2.3c1.7-0.4,0.9-2.2,2.4-2.3c4.7-0.4,9.3-0.2,13.9,0.6C937.1,380,940.2,382.8,944.4,383.7z"/>

      <linearGradient id="SVGID_16_" gradientUnits="userSpaceOnUse" x1="619.6534" y1="814.0727" x2="639.3361" y2="814.0727" gradientTransform="matrix(1.0632 0 0 -1.0632 253.774 1247.274)">
        <stop offset="0" style="stop-color:#E3C5D5"/>
        <stop offset="0.42" style="stop-color:#E8D3CF"/>
        <stop offset="1" style="stop-color:#EFE8CB"/>
      </linearGradient>
      <path class="st27" d="M913.4,386.3c-0.4,1.3-0.7,2.6-0.8,3.9c0,3.1,1.6,5.9,4.2,7.5c2.7,1.5,5.9,1.7,8.7,0.4
			c3-1.5,5.3-4.1,6.4-7.3c1.1-3.2,1.7-6.5,1.6-9.8c0.1-4.4-0.2-8.9-0.8-13.3c0.3-1.5-0.7-2.9-2.1-3.2c0,0-0.1,0-0.1,0h-0.7
			c-5.4-0.8-10.6,2.2-12.7,7.2c-0.5,1.6-0.9,3.3-1.1,5C915.3,380,914.4,383.2,913.4,386.3z"/>

      <linearGradient id="SVGID_17_" gradientUnits="userSpaceOnUse" x1="626.2551" y1="809.9124" x2="655.6447" y2="850.353" gradientTransform="matrix(1.0632 0 0 -1.0632 253.774 1247.274)">
        <stop offset="0" style="stop-color:#010101;stop-opacity:0"/>
        <stop offset="0.95" style="stop-color:#010101"/>
      </linearGradient>
      <path class="st28" d="M915.3,379.6c0,0-0.5,4.1,1.4,5.6s9.1,5,12.7,0c2.2-3.2,3.6-6.9,4.2-10.8L915.3,379.6z"/>

      <linearGradient id="SVGID_18_" gradientUnits="userSpaceOnUse" x1="546.6298" y1="968.5271" x2="580.9476" y2="968.5271" gradientTransform="matrix(1.0526 0.1701 0.1701 -1.0526 164.2559 1281.2946)">
        <stop offset="0" style="stop-color:#E3C5D5"/>
        <stop offset="0.42" style="stop-color:#E8D3CF"/>
        <stop offset="1" style="stop-color:#EFE8CB"/>
      </linearGradient>
      <path class="st29" d="M905.3,366.2c0.9,3,6.5,13.5,14.3,15.4c16.7,4.1,21.7-25.2,20.9-31.3c-1.1-5.1-3.8-9.8-7.7-13.4
			c-4.3-3.4-10.2-4-15.1-1.7C904.5,340.7,901.2,353.5,905.3,366.2z"/>
      <path class="st26" d="M916.8,346c3.5,1,7,1.8,10.6,2.2c0.2,2.1,0.5,4.2,0.9,6.4c0.1,0.9,0.4,1.7,0.8,2.5c0.7,1.1,1.9,1.8,3.2,2
			c1.3,0.2,2.7,0.2,4,0c0.6-0.1,1.2,0,1.7,0.3c0.3,0.2,0.5,0.6,0.6,0.9l2.3,5.5c0.2,0.1,0.5,0,0.6-0.2c0,0,0-0.1,0.1-0.2
			c0.1-0.3,0.1-0.6,0-0.9c-0.4-2.2,1.1-4.2,2-6.4c2.3-5.2,0.8-11.2-1.2-16.5c-0.8-2.5-2-4.8-3.5-6.9c-3.9-4.3-9.3-6.9-15.1-7.2
			c-2.8-0.4-5.7-0.2-8.4,0.7c-3.9,1.7-6.6,5.5-6.9,9.7C908.5,342.5,913.3,345,916.8,346z"/>
    </g>
    <polygon class="st1" points="456,339.7 420.9,357.4 456,375.1 491.2,357.4 	"/>
    <path class="st30" d="M456,376.8c-0.2,0.1-0.5,0.1-0.7,0L420.1,359c-0.5-0.3-0.9-0.8-0.9-1.5c0-0.6,0.3-1.2,0.9-1.5l35.2-17.8
		c0.5-0.2,1-0.2,1.5,0l35.2,17.8c0.6,0.3,0.9,0.8,0.9,1.5c0,0.6-0.3,1.2-0.9,1.5l-35.2,17.8C456.5,376.8,456.3,376.8,456,376.8z
		 M424.5,357.4l31.5,15.9l31.5-15.9L456,341.5L424.5,357.4z"/>
    <polygon class="st1" points="420.9,357.4 420.9,545.1 456,562.8 456,375.1 	"/>
    <path class="st30" d="M456,564.4c-0.3,0-0.5-0.1-0.7-0.2l-35.2-17.8c-0.5-0.3-0.9-0.8-0.9-1.5V357.3c0-0.6,0.3-1.1,0.8-1.4
		c0.5-0.3,1.1-0.3,1.6,0l35.1,17.8c0.6,0.3,0.9,0.8,0.9,1.5v187.6c0,0.6-0.3,1.1-0.8,1.4C456.6,564.4,456.3,564.4,456,564.4z
		 M422.5,544l31.9,16.1v-184l-31.9-16.1V544z"/>
    <polygon class="st1" points="456,562.8 491.2,545.1 491.2,357.4 456,375.1 	"/>
    <path class="st30" d="M456,564.4c-0.3,0-0.6-0.1-0.9-0.2c-0.5-0.3-0.8-0.8-0.8-1.4V375.1c0-0.6,0.4-1.2,0.9-1.5l35.1-17.8
		c0.5-0.3,1.1-0.3,1.6,0c0.5,0.3,0.8,0.8,0.8,1.4V545c0,0.6-0.3,1.2-0.9,1.5l-35.2,17.8C456.5,564.3,456.3,564.4,456,564.4z
		 M457.7,376.1v184l31.9-16.1V360.1L457.7,376.1z"/>
    <polygon class="st1" points="580.1,410 544.9,427.7 580.1,445.5 615.2,427.7 	"/>
    <path class="st30" d="M580.1,447.1c-0.2,0.1-0.5,0.1-0.7,0l-35.2-17.8c-0.5-0.3-0.9-0.8-0.9-1.5c0-0.6,0.3-1.2,0.9-1.5l35.2-17.8
		c0.5-0.2,1-0.2,1.5,0l35.2,17.8c0.5,0.3,0.9,0.8,0.9,1.5c0,0.6-0.3,1.2-0.9,1.5l-35.2,17.8C580.6,447.2,580.3,447.2,580.1,447.1z
		 M548.6,427.7l31.5,15.9l31.5-15.9l-31.5-15.9L548.6,427.7z"/>
    <polygon class="st1" points="544.9,427.7 544.9,545.1 580.1,562.8 580.1,445.5 	"/>
    <path class="st30" d="M580.1,564.4c-0.2,0-0.5-0.1-0.7-0.2l-35.2-17.8c-0.5-0.3-0.9-0.8-0.9-1.5V427.5c0-0.6,0.3-1.1,0.8-1.4
		c0.5-0.3,1.1-0.3,1.6,0l35.1,17.8c0.6,0.3,0.9,0.8,0.9,1.5v117.3c0,0.6-0.3,1.1-0.8,1.4C580.7,564.3,580.4,564.4,580.1,564.4z
		 M546.6,544l31.9,16.1V446.5l-31.9-16.1V544z"/>
    <polygon class="st1" points="580.1,562.8 615.2,545.1 615.2,427.7 580.1,445.5 	"/>
    <path class="st30" d="M580.1,564.4c-0.3,0-0.6-0.1-0.9-0.2c-0.5-0.3-0.8-0.8-0.8-1.4V445.5c0-0.6,0.4-1.2,0.9-1.5l35.1-17.8
		c0.5-0.3,1.1-0.3,1.6,0c0.5,0.3,0.8,0.8,0.8,1.4v117.5c0,0.6-0.3,1.2-0.9,1.5l-35.2,17.8C580.6,564.4,580.3,564.5,580.1,564.4z
		 M581.7,446.5v113.6l31.9-16.1V430.4L581.7,446.5z"/>
    <polygon class="st1" points="704.1,450.1 669,467.8 704.1,485.6 739.3,467.8 	"/>
    <path class="st30" d="M704.1,487.2c-0.2,0-0.5-0.1-0.7-0.2l-35.2-17.8c-0.8-0.4-1.1-1.4-0.7-2.3c0.2-0.3,0.4-0.5,0.7-0.7l35.2-17.8
		c0.5-0.2,1-0.2,1.5,0l35.2,17.8c0.8,0.4,1.1,1.4,0.7,2.3c-0.2,0.3-0.4,0.5-0.7,0.7L704.9,487C704.6,487.1,704.4,487.2,704.1,487.2z
		 M672.6,467.8l31.5,15.9l31.5-15.9l-31.5-15.9L672.6,467.8z"/>
    <polygon class="st1" points="669,467.8 669,545.1 704.1,562.8 704.1,485.6 	"/>
    <path class="st30" d="M704.1,564.4c-0.2,0-0.5-0.1-0.7-0.2l-35.2-17.8c-0.5-0.3-0.9-0.8-0.9-1.5v-77.2c0-0.9,0.7-1.7,1.6-1.7
		c0.3,0,0.5,0.1,0.8,0.2l35.1,17.8c0.6,0.3,0.9,0.8,0.9,1.5v77.2c0,0.6-0.3,1.1-0.8,1.4C704.7,564.4,704.4,564.5,704.1,564.4z
		 M670.6,544l31.9,16.1v-73.6l-31.9-16.1V544z"/>
    <polygon class="st1" points="704.1,562.8 739.3,545.1 739.3,467.8 704.1,485.6 	"/>
    <path class="st30" d="M704.1,564.4c-0.3,0-0.6-0.1-0.9-0.2c-0.5-0.3-0.8-0.8-0.8-1.4v-77.2c0-0.6,0.4-1.2,0.9-1.5l35.1-17.8
		c0.5-0.3,1.1-0.3,1.6,0c0.5,0.3,0.8,0.8,0.8,1.4V545c0,0.6-0.3,1.2-0.9,1.5l-35.2,17.8C704.6,564.3,704.4,564.4,704.1,564.4z
		 M705.8,486.6v73.6l32-16.1v-73.6L705.8,486.6z"/>
  </g>
  <g>
    <linearGradient id="SVGID_19_" gradientUnits="userSpaceOnUse" x1="365.1044" y1="83.3214" x2="509.6541" y2="83.3214">
      <stop offset="0" style="stop-color:#230031"/>
      <stop offset="0.2917" style="stop-color:#341646"/>
      <stop offset="1" style="stop-color:#5C4877"/>
    </linearGradient>
    <path class="st31" d="M481.8,19c20.4-0.5,21.4,15.2,19.5,27.6s-10.5,10.5-5.7,23.3s21.4,10.5,10.5,32.3
		c-10.9,21.9-79.6,48-105.1,50.1c-25.5,2.1-47.4-15.4-28.9-41.6s37.5-10.5,37.5-38s4.3-24.7,23.3-36.1
		C448.6,27.1,459.6,4.4,481.8,19z"/>
    <path class="st32" d="M461.8,64.9L452.3,86l9.5,7.1c0,0,2.4,3.5,6.9-3.5s6.9-15.5,8.3-16.9S461.8,64.9,461.8,64.9z"/>
    <path class="st33" d="M472.1,83.3c11.1,3.1,40.9,5.2,44.7,19.4c4.9,18.1,5.2,24.2,5.7,27.8c-3.2,0.7-9.5,1.7-17.2,2.8
		c-23.2,3.2-48.3,52-48.3,52s-58.3-34.4-64.6-39.9c-6.3-5.5,22-44.7,30.8-50.9c4.7-3.3,19.2-11.3,31-14.2
		C452.3,86,464.7,93.9,472.1,83.3z"/>
    <linearGradient id="SVGID_20_" gradientUnits="userSpaceOnUse" x1="389.5929" y1="185.281" x2="459.0302" y2="185.281">
      <stop offset="0" style="stop-color:#EE9E7A"/>
      <stop offset="0.4257" style="stop-color:#F6BB9C"/>
      <stop offset="1" style="stop-color:#FFDEC7"/>
    </linearGradient>
    <path class="st34" d="M398,126.9l23.9,10.2c0,0-12.9,17.2-8.5,31.3s16.7,35.1,19.8,37.2c3.1,2.1,2.8,6.5,8.8,8.3
		c6,1.7,14.8,11,14.5,14.4c-0.3,3.4-6-0.7-6.9-1.4c-0.9-0.7,9.7,10.7,9.4,15.1c-0.3,4.5-14.5-10-14.5-10s6,5.2,4.4,7.9
		c-1.6,2.8-5.3,1.4-6.9-0.3c0,4.1-0.3,4.8-3.5,3.3c-3.1-1.5-10.1-13.2-12.3-19.8c-2.2-6.5-29.8-36.8-34.8-54
		C386.4,151.9,392.4,135.8,398,126.9z"/>
    <polygon class="st32" points="515.9,126.9 516.5,145.4 494.2,145.4 494.2,128.6 	"/>
    <linearGradient id="SVGID_21_" gradientUnits="userSpaceOnUse" x1="482.19" y1="147.1972" x2="516.4725" y2="147.1972">
      <stop offset="0" style="stop-color:#EE9E7A"/>
      <stop offset="0.4257" style="stop-color:#F6BB9C"/>
      <stop offset="1" style="stop-color:#FFDEC7"/>
    </linearGradient>
    <path class="st35" d="M516.5,145.4c-3.8-4.8-16.5-13.8-26.5-8.9c-10,4.8-8.9,18.2-4.8,21.3c4.1,3.1,15.8,2.1,17.2-7.6
		C503.7,140.6,516.5,145.4,516.5,145.4z"/>
    <linearGradient id="SVGID_22_" gradientUnits="userSpaceOnUse" x1="467.4747" y1="15.0707" x2="470.6551" y2="73.3782">
      <stop offset="0" style="stop-color:#F0A77C"/>
      <stop offset="0.2116" style="stop-color:#F2AE85"/>
      <stop offset="0.5634" style="stop-color:#F7C19F"/>
      <stop offset="1" style="stop-color:#FFDEC7"/>
    </linearGradient>
    <path class="st36" d="M483.4,38.1c4-5.6,6.8,14.3,5.7,21.4c-1.1,7.1-3.4,17.8-12,19.9s-18.3-8.8-20-14.5c-1.8-5.8-10-10.4-6.4-15
		c3.6-4.6,8.2-1.4,8.4,2.9c0.2,4.3,0.5,7.8,2.3,8.2c1.4-8.6-0.7-12.1,3.4-13.5C468.8,45.9,478.1,45.6,483.4,38.1z"/>
  </g>
  <g>
    <path class="st37" d="M821.4,594.2c0,0-9.7,15.4-19.5,13.5c-9.8-1.9-11.1-4-7-6.6c4.1-2.6,15.1-10.1,13-10.8
		c-2.1-0.7-6.7,0.3-6.2-1.7c0.5-2,14.3-4.7,14.3-4.7l9.6,4.7L821.4,594.2z"/>
    <path class="st38" d="M827.5,793.8c-0.6,0.1-31.2-0.9-24.4,10.5c4.4,7.4,10.6,8.7,15.1,8.9c4.6,0.1,12.9-2.5,15-1.2
		c2.1,1.3,12.5,8.5,18.4,1.3c1.2-1.4,2-5.7,1.2-8.4C852.1,802.2,830.9,793.2,827.5,793.8z"/>
    <path class="st39" d="M803.1,804.4c4.4,7.4,10.6,8.7,15.1,8.9c4.6,0.1,12.9-2.5,15-1.2c2.1,1.3,12.5,8.5,18.4,1.3
		c0.7-0.8,1.2-2.4,1.4-4.1c-4.1,6.1-14.3,4.5-17.1,2.4c-3.2-2.3-7.9-3.4-11.8-2.6c-4,0.8-12.8-0.2-17.1-4.4c-2.7-2.5-2.5-5.5-2-7.4
		C802.3,798.8,801.2,801,803.1,804.4z"/>
    <path class="st39" d="M831.4,538.9c0,0,37,47.3,18.3,102.3c-4.1,12-12.2,37.5-9.5,50c3.2,15,8,10.8,11.4,60.6
		c3,44,2.5,34.4,3.5,52.3c0.3,5.1-18.4,10.4-21.2,2.5c-12.3-34.5-29.4-106.7-25.9-146.5c3.5-39.8,5.7-77.1,5.7-77.1
		S819.2,550.3,831.4,538.9z"/>
    <path class="st38" d="M769.7,814.4c-0.6,0-32.2-7-27.1,6.2c3.4,8.6,9.5,11.1,14.2,12.1c4.7,1,13.9-0.1,15.8,1.7
		c1.9,1.8,11.5,11.3,18.8,4.9c1.5-1.3,3.1-5.5,2.7-8.5C793.8,827.9,773.3,814.4,769.7,814.4z"/>
    <path class="st39" d="M742.6,820.6c3.4,8.6,9.5,11.1,14.2,12.1c4.7,1,13.9-0.1,15.8,1.7c1.9,1.8,11.5,11.3,18.8,4.9
		c0.9-0.7,1.7-2.2,2.2-4c-5.3,5.5-15.6,1.8-18.2-0.9c-3-3-7.6-5.1-11.9-5c-4.3,0.1-13.1-2.6-16.9-7.9c-2.3-3.1-1.7-6.2-0.8-8.1
		C742.7,814.6,741.1,816.7,742.6,820.6z"/>
    <path class="st40" d="M834,584.5c0,0,21,22.3-16.6,78.8c0,0-18.3,40.2-17.6,53.1c0.7,15.4,7,16.8,0.8,67.2
		c-5.3,43.7-3.1,44.6-6.4,48.3c-3.6,3.9-21.4,0.1-22-7.7c-3.3-42.8-10-105.7-6.2-145.4c4.5-45.7,7.7-83.3,7.7-83.3
		S820.2,593.4,834,584.5z"/>
    <path class="st39" d="M766,678.8c-3.9,39.8,2.8,102.7,6.2,145.4c0.2,3,3.1,5.4,6.7,7c-0.4-14.8-2.7-102-2.8-122.3
		c-0.2-22.3-2.6-63.8,12.2-76c14.8-12.1,21.4-34,21.4-34l-2.5-6.8c-16.5,2.6-33.6,3.4-33.6,3.4S770.5,633.1,766,678.8z"/>
    <g>
      <path class="st0" d="M827.8,485.2c0,0-1.8-17.3,14.8-17.6c17.7-0.3,13.8,36.6,13.8,36.6s-0.9,31.9-4,41.8
			c-4.2,13.2-27.7,47.3-27.7,47.3s-10.4-2.5-13.5-9.9c0,0,18.5-32.2,20.1-44.4C833.1,525.6,827.4,488.1,827.8,485.2z"/>
      <path class="st0" d="M824.7,593.3c0,0,23.5-34.1,27.7-47.3c3.2-9.9,4-41.8,4-41.8s6.3-35.6-13.7-37.2c-8.1-0.7-9.5,2.8-11.4,5.4
			c12.9,0.7,14.1,9.4,12.9,28.5c-1.3,20.8,1.4,26.7,0.2,44.4c-1.2,17.7-19.9,35-22.8,39.2c-1.9,2.8-6.4-0.6-9.3-3.2
			c-0.7,1.3-1.2,2.1-1.2,2.1C814.3,590.8,824.7,593.3,824.7,593.3z"/>
    </g>
    <g>
      <path class="st37" d="M800.3,453.4c0,0,4.5,13.5-2,22.5c-3.5,4.9,31.4,12.4,28-1.8c-2.8-11.7,1.9-22.4,10.6-31.3L800.3,453.4z"/>
      <path class="st41" d="M801.8,463.2c0,0,8.6-2,13.6-4.9l0.6,0.3l3.3,0.8l1.2,0.5c0,0-1.8,14.6-20.4,12.9
			C800,472.8,801.6,468.9,801.8,463.2z"/>
      <path class="st37" d="M799.9,397.7c0,0-5.7,9.2-13.3,24.8c-6.7,13.8-7.9,29.7,0.9,36.9c4.1,3.4,33.2,10.2,46.3-23.6
			C842.2,414.2,827.5,385.9,799.9,397.7z"/>
    </g>
    <path class="st20" d="M784.7,402.9c-3.5,3.1-0.9,7.8,8,11.7c12.8,5.6,2.9,22.5,7.3,25.9c2.4,1.9,3.9,3.3,10.2-1.3
		c2.5-1.8,6.5-3.5,7.2,3.7c0.5,6.8-4.1,5.6-6.2,15.5c-0.9,3.9,10.7,5.3,15,2.4c12.8-8.5,30-33.4,12.6-58
		C825.7,384.1,790.7,397.6,784.7,402.9z"/>
    <path class="st0" d="M856.2,594.9c-0.1-3-0.8-6.6-1.7-10.9c0-0.2,0-0.3-0.1-0.5c-2.3-11.7-5-18.2-5-18.2l-0.2,0
		c-4.6-12.7-8.7-17.8-6.6-34c1-8.3,8.5-32.9,7.5-51.2c-0.9-18.3-20.7-18-52.4-5.2C766,487.6,770.7,507,770.7,507
		c4,19.6,11.6,22.7,5.3,71.7c-0.6,2.5-0.6,2.5-3.5,22.4C767.6,635.1,851.3,618.6,856.2,594.9L856.2,594.9z"/>
    <g>
      <path class="st37" d="M698.7,508.7c0,0-3.4-0.7-8.2-5.2c-4.7-4.5-4.1-4.4-5.5-8.3c-1.5-3.9,0-9.3,1.5-10.6c2-1.7,4-0.2,7.6,7.5
			c3.7,8,11.9,7.5,13.1,8.9C708.4,502.5,700.8,509.5,698.7,508.7z"/>
      <path class="st37" d="M698.4,501c-1-0.4,0.5-4.1-3.8-11.9c-3.3-6,3.9,0,4.7,1.4c0.8,1.4,7.9,10.8,7.9,10.8S702,502.3,698.4,501z" />
      <path class="st0" d="M797.6,501.4c0.3-3.8-2.1-15.7-13.5-16.7c-7.4-0.7-42.3,38.5-47.5,38.6c-2.6,0.1-29.9-25.5-29.9-25.5
			s1.3,7.6-9.9,12c0,0,28.6,40.4,40,37C756.3,540.9,796.2,519.4,797.6,501.4z"/>
    </g>
  </g>
  <g id="_534_content_creation_outline">
    <rect x="240.4" y="457.3" class="st0" width="282.6" height="312.3"/>
    <path class="st42" d="M523,771.7H240.4c-1.1,0-2.1-0.9-2.1-2.1V457.3c0-1.1,0.9-2.1,2.1-2.1H523c1.1,0,2.1,0.9,2.1,2.1v312.4
		C525,770.8,524.1,771.7,523,771.7z M242.4,767.6H521V459.3H242.4L242.4,767.6z"/>
    <polygon class="st1" points="548.8,804.3 274.2,804.3 274.2,528.2 322.9,483.1 548.8,483.1 	"/>
    <path class="st42" d="M548.8,806.3H274.2c-1.1,0-2.1-0.9-2.1-2.1v-276c0-0.6,0.2-1.1,0.7-1.5l48.8-45.2c0.4-0.3,0.9-0.5,1.4-0.5
		h225.9c1.1,0,2.1,0.9,2.1,2.1v321.2C550.9,805.4,550,806.3,548.8,806.3z M276.2,802.2h270.6V485.1H323.7l-47.5,44L276.2,802.2z"/>
    <polygon class="st1" points="274.2,528.2 322.4,528.2 322.9,483.1 	"/>
    <path class="st42" d="M322.4,530.3h-48.2c-1.1,0-2.1-0.9-2-2.1c0-0.6,0.2-1.1,0.7-1.5l48.8-45.2c0.8-0.8,2.1-0.7,2.9,0.1
		c0.4,0.4,0.6,0.9,0.5,1.4l-0.6,45.2C324.4,529.4,323.5,530.3,322.4,530.3z M279.4,526.2h40.9l0.5-38.4L279.4,526.2z"/>
    <path class="st43" d="M512.2,567.7h-172c-1.1,0-2.1-0.9-2.1-2.1s0.9-2.1,2.1-2.1h172c1.1,0,2.1,0.9,2.1,2.1
		S513.3,567.7,512.2,567.7z"/>
    <path class="st43" d="M451.6,596.3H310.9c-1.1,0-2.1-0.9-2.1-2.1s0.9-2.1,2.1-2.1h140.7c1.1,0,2.1,0.9,2.1,2.1
		S452.7,596.3,451.6,596.3L451.6,596.3z"/>
    <path class="st43" d="M512.2,624.8H305.6c-1.1,0-2.1-0.9-2.1-2.1c0-1.1,0.9-2.1,2.1-2.1h206.6c1.1,0,2.1,0.9,2.1,2.1
		C514.2,623.9,513.3,624.8,512.2,624.8z"/>
    <path class="st43" d="M512.2,653.4H377.5c-1.1,0-2.1-0.9-2.1-2.1c0-1.1,0.9-2.1,2.1-2.1h134.7c1.1,0,2.1,0.9,2.1,2.1
		C514.2,652.5,513.3,653.4,512.2,653.4z"/>
    <path class="st43" d="M357,653.4h-26.7c-1.1,0-2.1-0.9-2.1-2.1c0-1.1,0.9-2.1,2.1-2.1H357c1.1,0,2.1,0.9,2.1,2.1
		C359,652.5,358.1,653.4,357,653.4z"/>
    <path class="st43" d="M512.2,682h-60.6c-1.1,0-2.1-0.9-2.1-2.1s0.9-2.1,2.1-2.1h60.6c1.1,0,2.1,0.9,2.1,2.1S513.3,682,512.2,682z" />
    <path class="st43" d="M436.1,682H310.7c-1.1,0-2.1-0.9-2.1-2.1s0.9-2.1,2.1-2.1h125.4c1.1,0,2.1,0.9,2.1,2.1S437.3,682,436.1,682z" />
    <path class="st43" d="M512.2,710.6h-32.7c-1.1,0-2.1-0.9-2.1-2.1s0.9-2.1,2.1-2.1h32.7c1.1,0,2.1,0.9,2.1,2.1
		S513.3,710.6,512.2,710.6z"/>
    <path class="st43" d="M465.4,710.6h-46.8c-1.1,0-2.1-0.9-2.1-2.1s0.9-2.1,2.1-2.1h46.8c1.1,0,2.1,0.9,2.1,2.1
		S466.5,710.6,465.4,710.6z"/>
    <path class="st43" d="M401.7,710.6h-37.4c-1.1,0-2.1-0.9-2.1-2.1s0.9-2.1,2.1-2.1h37.4c1.1,0,2.1,0.9,2.1,2.1
		S402.9,710.6,401.7,710.6L401.7,710.6z"/>
    <path class="st43" d="M349.7,710.6h-38.8c-1.1,0-2.1-0.9-2.1-2.1s0.9-2.1,2.1-2.1h38.8c1.1,0,2.1,0.9,2.1,2.1
		S350.8,710.6,349.7,710.6z"/>
    <path class="st43" d="M471.4,739.2H340.1c-1.1,0-2.1-0.9-2.1-2.1s0.9-2.1,2.1-2.1h131.2c1.1,0,2.1,0.9,2.1,2.1
		S472.5,739.2,471.4,739.2z"/>
    <path class="st43" d="M495.7,596.3h-16.4c-1.1,0-2.1-0.9-2.1-2.1s0.9-2.1,2.1-2.1h16.4c1.1,0,2.1,0.9,2.1,2.1
		S496.9,596.3,495.7,596.3z"/>
    <path class="st43" d="M512.2,523h-60.6c-1.1,0-2.1-0.9-2.1-2.1s0.9-2.1,2.1-2.1h60.6c1.1,0,2.1,0.9,2.1,2.1S513.3,523,512.2,523z" />
    <path class="st1" d="M449.7,642.8h146.6l0,0v107.3c0,3.9-3.1,7-7,7l0,0H456.7c-3.9,0-7-3.1-7-7L449.7,642.8L449.7,642.8z"/>
    <path class="st42" d="M589.3,759.2H456.7c-5,0-9.1-4.1-9.1-9.1V642.8c0-1.1,0.9-2.1,2.1-2.1h146.8c1.1,0,2.1,0.9,2.1,2.1v107.3
		C598.5,755.1,594.4,759.2,589.3,759.2C589.4,759.2,589.3,759.2,589.3,759.2z M451.8,644.8v105.3c0,2.7,2.2,5,5,5h132.6
		c2.7,0,5-2.2,5-5V644.8H451.8z"/>
    <path class="st44" d="M456.7,630h132.6c3.9,0,7,3.1,7,7v0v5.8l0,0H449.7l0,0v-5.8C449.8,633.1,452.9,630,456.7,630z"/>
    <path class="st42" d="M596.5,644.8H449.7c-1.1,0-2.1-0.9-2.1-2.1v-5.8c0-5,4.1-9.1,9.1-9.1h132.6c5,0,9.1,4,9.2,9c0,0,0,0,0,0.1
		v5.8C598.6,643.8,597.7,644.8,596.5,644.8C596.5,644.8,596.5,644.8,596.5,644.8z M451.9,640.7h142.5v-3.8c0-2.7-2.2-5-5-5l0,0
		H456.7c-2.7,0-5,2.2-5,5L451.9,640.7z"/>
    <polygon class="st44" points="500.7,719.9 500.7,661.5 557.4,690.7 	"/>
    <path class="st42" d="M500.7,722c-0.4,0-0.7-0.1-1.1-0.3c-0.6-0.4-1-1-1-1.8v-58.3c0-1.1,0.9-2.1,2.1-2c0.3,0,0.6,0.1,0.9,0.2
		l56.8,29.2c0.7,0.4,1.1,1.1,1.1,1.8c0,0.8-0.4,1.5-1.1,1.8l-56.8,29.2C501.3,722,501,722,500.7,722z M502.7,664.9v51.7l50.2-25.8
		L502.7,664.9z"/>
    <path class="st42" d="M577.7,741.5H468.4c-1.1,0-2.1-0.9-2.1-2.1s0.9-2.1,2.1-2.1h109.3c1.1,0,2.1,0.9,2.1,2.1
		S578.8,741.5,577.7,741.5z"/>
    <circle class="st42" cx="553.9" cy="739.4" r="6.4"/>
    <path class="st42" d="M553.9,747.9c-4.7,0-8.5-3.8-8.5-8.5s3.8-8.5,8.5-8.5s8.5,3.8,8.5,8.5l0,0
		C562.3,744.1,558.5,747.9,553.9,747.9z M553.9,735.1c-2.4,0-4.4,2-4.4,4.4c0,2.4,2,4.4,4.4,4.4s4.4-2,4.4-4.4l0,0
		C558.2,737.1,556.3,735.1,553.9,735.1C553.9,735,553.9,735,553.9,735.1L553.9,735.1z"/>
    <rect x="493.8" y="514.3" class="st45" width="120" height="89.4"/>
    <path class="st42" d="M613.9,605.9h-120c-1.1,0-2.1-0.9-2.1-2.1v-89.5c0-1.1,0.9-2.1,2.1-2.1h120c1.1,0,2.1,0.9,2.1,2.1v89.5
		C615.9,604.9,615,605.9,613.9,605.9z M495.9,601.7h115.9v-85.3H495.9V601.7z"/>
    <path class="st42" d="M493.8,580.8c-0.7,0-1.3-0.3-1.7-0.9c-0.6-0.9-0.4-2.2,0.6-2.9c0,0,0,0,0,0l55.7-37.4c0.7-0.5,1.7-0.5,2.4,0
		l43.9,35.1c0.9,0.7,1,2,0.3,2.9c-0.7,0.9-2,1-2.9,0.3l-42.7-34.1L495,580.3C494.7,580.6,494.2,580.7,493.8,580.8z"/>
    <path class="st42" d="M613.9,565.3c-0.5,0-0.9-0.1-1.3-0.4l-19-14.9l-15.1,14.8c-0.8,0.8-2.1,0.8-2.9-0.1c-0.8-0.8-0.8-2.1,0.1-2.9
		l0,0l16.4-16c0.7-0.7,1.9-0.8,2.7-0.1l20.5,16c0.9,0.7,1.1,2,0.4,2.9C615.1,565,614.5,565.3,613.9,565.3z"/>
    <circle class="st46" cx="575.4" cy="535.6" r="8.7"/>
    <path class="st42" d="M575.4,546.4c-5.9,0-10.8-4.8-10.8-10.8c0-5.9,4.8-10.8,10.8-10.8c5.9,0,10.8,4.8,10.8,10.8c0,0,0,0,0,0
		C586.1,541.5,581.3,546.4,575.4,546.4z M575.4,529c-3.7,0-6.7,3-6.7,6.6s3,6.7,6.6,6.7c3.7,0,6.7-3,6.7-6.6c0,0,0,0,0,0
		C582,531.9,579.1,529,575.4,529z"/>

    <rect x="252.3" y="580" transform="matrix(0.9251 -0.3796 0.3796 0.9251 -228.0503 148.831)" class="st46" width="22.2" height="145.4"/>
    <path class="st42" d="M280.7,726.2c-0.3,0-0.5,0-0.8-0.1c-0.5-0.2-0.9-0.6-1.1-1.1l-55.2-134.5c-0.2-0.5-0.2-1.1,0-1.6
		c0.2-0.5,0.6-0.9,1.1-1.1l20.6-8.4c1.1-0.4,2.2,0.1,2.7,1.1L303.1,715c0.4,1.1-0.1,2.2-1.1,2.7l-20.6,8.4
		C281.2,726.2,280.9,726.2,280.7,726.2z M228.2,590.8l53.6,130.7l16.7-6.9L245,583.9L228.2,590.8z"/>
    <polygon class="st1" points="301.2,715.7 303.4,735.6 305.6,755.6 293.1,739.8 280.7,724.1 	"/>
    <path class="st42" d="M305.6,757.6c-0.6,0-1.2-0.3-1.6-0.8L279,725.3c-0.4-0.5-0.5-1.2-0.4-1.8c0.2-0.6,0.6-1.1,1.2-1.4l20.6-8.4
		c0.6-0.2,1.3-0.2,1.8,0.1c0.6,0.3,0.9,0.9,1,1.5l4.3,39.9c0.1,0.9-0.4,1.7-1.3,2.1C306.1,757.5,305.8,757.6,305.6,757.6z M284,725
		l18.8,23.7l-3.3-30.1L284,725z"/>
    <polygon class="st42" points="303.4,735.6 305.6,755.6 293.1,739.8 	"/>
    <path class="st42" d="M305.6,757.6c-0.6,0-1.2-0.3-1.6-0.8l-12.4-15.7c-0.7-0.9-0.5-2.2,0.4-2.9c0.1-0.1,0.3-0.2,0.5-0.3l10.3-4.1
		c0.6-0.2,1.3-0.2,1.8,0.1c0.6,0.3,0.9,0.9,1,1.5l2.2,19.9c0.1,0.9-0.4,1.7-1.3,2.1C306.1,757.6,305.8,757.6,305.6,757.6z
		 M296.4,740.7l6.3,8l-1.1-10.1L296.4,740.7z"/>
  </g>
</svg>
